 <svg width={283} height={174} viewBox="0 0 283 174" fill="none">
  <circle
opacity="0.15"
cx="141.5"
cy="87.5"
r="141.5"
fill="#E8F3E8"
/>
<circle cx="141.5" cy="87.5" r="29.5" fill="#fff" />
<path
fillRule="evenodd"
clipRule="evenodd"
d="M148.71 74.32a.66.66 0 0 1 1.31.07v3.28h3.28a.66.66 0 1 1 0 1.3h-3.28v3.29a.66.66 0 1 1-1.3 0v-3.28h-3.29a.66.66 0 0 1 0-1.31h3.28v-3.28-.07zm-13.77 4c-.72 0-1.3.59-1.3 1.31v17.68l7.46-5.74a.66.66 0 0 1 .8 0l7.47 5.74V87.5a.66.66 0 1 1 1.3 0v11.14a.66.66 0 0 1-1.05.52l-8.12-6.24-8.12 6.24a.65.65 0 0 1-1.06-.52v-19a2.62 2.62 0 0 1 2.62-2.63h5.25a.66.66 0 0 1 0 1.31h-5.25z"
fill="#0F730C"
/>
</svg>